<svg id="visual" viewBox="0 0 900 600" width="900" height="600" xmlns="http://www.w3.org/2000/svg" xmlns:xlink="http://www.w3.org/1999/xlink" version="1.1"><rect x="0" y="0" width="900" height="600" fill="#1F4F61"></rect><defs><linearGradient id="grad1_0" x1="33.3%" y1="0%" x2="100%" y2="100%"><stop offset="20%" stop-color="#1f4f61" stop-opacity="1"></stop><stop offset="80%" stop-color="#1f4f61" stop-opacity="1"></stop></linearGradient></defs><defs><linearGradient id="grad2_0" x1="0%" y1="0%" x2="66.7%" y2="100%"><stop offset="20%" stop-color="#1f4f61" stop-opacity="1"></stop><stop offset="80%" stop-color="#1f4f61" stop-opacity="1"></stop></linearGradient></defs><g transform="translate(900, 0)"><path d="M0 486.7C-57.7 452.3 -115.5 417.8 -158.4 382.5C-201.4 347.1 -229.6 310.9 -282.1 282.1C-334.7 253.4 -411.5 232.1 -449.7 186.3C-487.9 140.5 -487.3 70.2 -486.7 0L0 0Z" fill="#001220"></path></g><g transform="translate(0, 600)"><path d="M0 -486.7C58.1 -462.8 116.3 -438.9 171.8 -414.8C227.4 -390.7 280.3 -366.4 329.5 -329.5C378.7 -292.7 424.1 -243.3 449.7 -186.3C475.3 -129.3 481 -64.6 486.7 0L0 0Z" fill="#001220"></path></g></svg>